<svg width="24" height="24" viewBox="0 0 24 24" fill="none" xmlns="http://www.w3.org/2000/svg">
<circle cx="12" cy="12" r="10" fill="#36DEC3" fill-opacity="0.25"/>
<circle cx="12" cy="12" r="6" fill="#36DEC3" fill-opacity="0.25"/>
<path d="M12 22C10.1917 22 8.52083 21.5542 6.9875 20.6625C5.45417 19.7625 4.2375 18.5458 3.3375 17.0125C2.44583 15.4792 2 13.8083 2 12C2 10.1917 2.44583 8.52083 3.3375 6.9875C4.2375 5.45417 5.45417 4.24167 6.9875 3.35C8.52083 2.45 10.1917 2 12 2C12.275 2 12.5083 2.1 12.7 2.3C12.9 2.49167 13 2.725 13 3C13 3.275 12.9 3.5125 12.7 3.7125C12.5083 3.90417 12.275 4 12 4C10.55 4 9.2125 4.35833 7.9875 5.075C6.7625 5.79167 5.79167 6.7625 5.075 7.9875C4.35833 9.2125 4 10.55 4 12C4 13.45 4.35833 14.7875 5.075 16.0125C5.79167 17.2375 6.7625 18.2083 7.9875 18.925C9.2125 19.6417 10.55 20 12 20C13.45 20 14.7875 19.6417 16.0125 18.925C17.2375 18.2083 18.2083 17.2375 18.925 16.0125C19.6417 14.7875 20 13.45 20 12C20 11.0833 19.85 10.2042 19.55 9.3625C19.2583 8.52083 18.8375 7.75417 18.2875 7.0625C17.9958 6.6875 17.9208 6.325 18.0625 5.975C18.2125 5.625 18.4667 5.4125 18.825 5.3375C19.1917 5.25417 19.5042 5.37083 19.7625 5.6875C20.4792 6.5625 21.0292 7.5375 21.4125 8.6125C21.8042 9.6875 22 10.8167 22 12C22 13.8083 21.55 15.4792 20.65 17.0125C19.7583 18.5458 18.5458 19.7625 17.0125 20.6625C15.4792 21.5542 13.8083 22 12 22Z" fill="#36DEC3"/>
<path d="M8.9875 17.2C9.90417 17.7333 10.9083 18 12 18C13.0917 18 14.0958 17.7333 15.0125 17.2C15.9292 16.6583 16.6542 15.9292 17.1875 15.0125C17.7292 14.0958 18 13.0917 18 12C18 11.3667 17.9042 10.7583 17.7125 10.175C17.5292 9.58333 17.2625 9.04167 16.9125 8.55C16.7125 8.26667 16.425 8.14583 16.05 8.1875C15.6833 8.22917 15.4167 8.4125 15.25 8.7375C15.0833 9.05417 15.1375 9.44167 15.4125 9.9C15.8042 10.5417 16 11.2417 16 12C16 12.7333 15.8208 13.4042 15.4625 14.0125C15.1042 14.6208 14.6208 15.1042 14.0125 15.4625C13.4042 15.8208 12.7333 16 12 16C11.2667 16 10.5958 15.8208 9.9875 15.4625C9.37917 15.1042 8.89583 14.6208 8.5375 14.0125C8.17917 13.4042 8 12.7333 8 12C8 11.2667 8.17917 10.5958 8.5375 9.9875C8.89583 9.37917 9.37917 8.89584 9.9875 8.5375C10.5958 8.17917 11.2667 8 12 8C12.275 8 12.5083 7.90417 12.7 7.7125C12.9 7.5125 13 7.275 13 7C13 6.725 12.9 6.49167 12.7 6.3C12.5083 6.1 12.275 6 12 6C10.9083 6 9.90417 6.27083 8.9875 6.8125C8.07083 7.34583 7.34167 8.07083 6.8 8.9875C6.26667 9.90417 6 10.9083 6 12C6 13.0917 6.26667 14.0958 6.8 15.0125C7.34167 15.9292 8.07083 16.6583 8.9875 17.2Z" fill="#2EC9B0"/>
<path d="M12 0.924805C12.275 0.924805 12.5085 1.02468 12.7002 1.22461C12.9001 1.41623 13 1.64989 13 1.9248V10.2754L13.1123 10.3438C13.3675 10.5114 13.5715 10.7302 13.7246 11C13.9079 11.3 14 11.6333 14 12C14 12.3667 13.9079 12.7044 13.7246 13.0127C13.5496 13.3125 13.3082 13.554 13 13.7373C12.7 13.9123 12.3667 14 12 14C11.6333 14 11.2956 13.9123 10.9873 13.7373C10.6875 13.554 10.446 13.3125 10.2627 13.0127C10.0877 12.7044 10 12.3667 10 12C10 11.6333 10.0877 11.3 10.2627 11C10.446 10.6918 10.6875 10.4504 10.9873 10.2754C10.9915 10.2729 10.9958 10.27 11 10.2676V1.9248C11 1.64989 11.0955 1.41623 11.2871 1.22461C11.4871 1.02461 11.725 0.924805 12 0.924805Z" fill="#00B194"/>
</svg>
